<?xml version="1.0" encoding="utf-8"?>
<!-- Generator: Adobe Illustrator 19.0.1, SVG Export Plug-In . SVG Version: 6.00 Build 0)  -->
<svg version="1.1" id="Layer_1" xmlns="http://www.w3.org/2000/svg" xmlns:xlink="http://www.w3.org/1999/xlink" x="0px" y="0px"
	 viewBox="0 0 14.7 14.7" style="enable-background:new 0 0 14.7 14.7;" xml:space="preserve">
<style type="text/css">
	.st0{fill:#1072BA;}
</style>
<g>
	<path class="st0" d="M7.3,0.7c-3.7,0-6.7,3-6.7,6.7s3,6.7,6.7,6.7C11,14,14,11,14,7.3S11,0.7,7.3,0.7z M7.3,14.7
		C3.3,14.7,0,11.4,0,7.3S3.3,0,7.3,0s7.3,3.3,7.3,7.3S11.4,14.7,7.3,14.7z"/>
	<path class="st0" d="M7.8,4.5h-1v-1h1V4.5z M6.1,10.5l0.8-0.1V6.6L6.1,6.5V5.9h1.8v4.5l0.8,0.1v0.6H6.1V10.5z"/>
</g>
</svg>
